<svg width="56" height="55" viewBox="0 0 56 55" fill="none" xmlns="http://www.w3.org/2000/svg">
<path d="M55.7211 58.6782H0.852051C0.951903 57.7067 1.44663 54.3291 3.91571 50.0118C6.84775 44.8774 19.9194 45.6083 20.3596 44.8774C20.5503 44.5596 20.6592 43.2658 20.7228 41.9084C20.7999 40.147 20.7999 38.2766 20.7999 38.2766L28.2889 40.4829L35.7778 38.2766C35.7778 38.2766 35.7778 40.1333 35.8504 41.9084C35.9185 43.2703 36.0229 44.5823 36.2181 44.9046C36.6719 45.6355 49.7254 44.9046 52.662 50.0391C55.1265 54.3291 55.6258 57.7067 55.7211 58.6782Z" fill="#E1A387"/>
<path d="M55.7211 58.6782H0.852051C0.951903 57.7067 1.44663 54.3291 3.91571 50.0118C6.3848 45.6945 16.125 45.5175 19.3475 45.1361C19.933 45.0635 20.3006 44.9909 20.3687 44.8774C20.3687 44.8774 28.1527 55.0101 36.2271 44.8774C36.2998 45.0045 36.7627 45.0862 37.4889 45.1679C40.9202 45.5311 50.2474 45.7762 52.6711 50.0118C55.1265 54.3291 55.6258 57.7067 55.7211 58.6782Z" fill="#860018"/>
<path d="M37.4802 45.1679C31.126 54.0068 23.5462 49.1629 19.3252 45.1361C19.9107 45.0635 20.2783 44.9909 20.3464 44.8774C20.3464 44.8774 28.1304 55.0101 36.2048 44.8774C36.2911 45.0045 36.754 45.0862 37.4802 45.1679Z" fill="#6B1524"/>
<path d="M15.4715 22.9777C15.4715 22.9777 11.9993 17.1123 10.5651 22.1378C9.13081 27.1633 12.5984 29.5603 14.8723 29.0836C17.1463 28.6069 15.4715 22.9777 15.4715 22.9777Z" fill="#E1A387"/>
<path d="M15.0676 23.9355C15.0676 23.9355 12.6756 20.222 11.836 21.7202C11.3249 22.7793 11.119 23.9599 11.2414 25.1295C11.2414 25.1295 11.718 23.0367 13.2748 24.2215C13.2748 24.2215 11.777 27.5719 14.8316 26.614C14.8134 26.6276 16.0706 25.6107 15.0676 23.9355Z" fill="#CE8D75"/>
<path d="M40.394 22.9777C40.394 22.9777 43.8662 17.1123 45.3004 22.1378C46.7347 27.1633 43.267 29.5603 40.9931 29.0836C38.7192 28.6069 40.394 22.9777 40.394 22.9777Z" fill="#E1A387"/>
<path d="M40.4438 24.326C40.4438 24.326 42.8357 20.6125 43.6754 22.1106C44.1866 23.1697 44.394 24.3499 44.2745 25.5199C44.2745 25.5199 43.7934 23.4271 42.2366 24.612C42.2366 24.612 43.7344 27.9623 40.6798 27.0044C40.6798 27.018 39.4271 26.0011 40.4438 24.326Z" fill="#CE8D75"/>
<path d="M40.4843 32.552C40.2211 36.8647 35.3056 40.0562 32.0922 41.4817C30.2511 42.3403 28.1849 42.5915 26.1918 42.1989C14.0461 38.6262 14.391 30.3956 14.9357 28.0849C15.4803 25.7742 14.7359 21.2753 16.1611 15.9365C16.3446 15.2456 16.6178 14.5817 16.9736 13.9617C19.1476 10.1665 23.7817 8.94533 23.7817 8.94533C31.8108 3.75641 37.4297 8.85453 39.2816 13.0311C39.4046 13.3038 39.5137 13.5826 39.6084 13.8664C41.0108 18.1655 40.7567 27.7126 40.4843 32.552Z" fill="#F2C2AC"/>
<path fill-rule="evenodd" clip-rule="evenodd" d="M36.3917 5.35056C36.4239 5.34257 36.4562 5.33482 36.4886 5.32732C36.7649 5.25942 37.0454 5.20937 37.3282 5.1775C37.565 5.17992 37.8015 5.1966 38.0363 5.22744C38.2858 5.26608 38.5317 5.32529 38.7715 5.40449C42.2664 6.58028 42.5433 12.0552 42.0712 16.8219C42.0349 17.1579 41.9986 17.4938 41.9578 17.8207C41.7268 19.6522 41.4011 21.4706 40.9819 23.2684C40.9398 23.4564 40.8995 23.6219 40.8651 23.7627C40.8439 23.8497 40.8251 23.9272 40.8095 23.9947C40.7595 24.2036 40.7277 24.3171 40.7277 24.3171L40.6415 23.7451V23.6679C40.4554 22.2379 39.7338 20.3902 38.8533 18.5107C37.8249 16.4315 36.7069 14.3985 35.5025 12.4174C33.4224 13.0933 30.2869 14.0135 26.2825 14.9015C25.5018 15.074 24.6939 15.2465 23.8452 15.4145C22.6923 15.6445 21.482 15.8684 20.2142 16.0863C15.1807 16.9353 12.8886 15.4599 11.8855 13.5622C11.8052 13.4148 11.7325 13.2632 11.6677 13.1083C10.7282 10.8384 11.4044 8.17356 11.4044 8.17356C11.6677 8.73195 12.2486 8.78644 13.0838 8.49135C13.2384 8.43764 13.3899 8.3755 13.5377 8.30522C14.6597 7.81095 16.1376 6.85594 17.8467 5.75154C20.7213 3.894 24.25 1.61383 27.8393 0.392455C28.5502 0.142254 29.3008 0.0238018 30.0542 0.0428994C30.411 0.0555203 30.7654 0.105729 31.1117 0.192705C32.237 0.499774 33.2562 1.11074 34.0574 1.95866C34.1799 2.08577 34.3025 2.21289 34.4205 2.34454C35.148 3.18631 35.7685 4.11494 36.2678 5.10924C36.3098 5.18937 36.3511 5.26989 36.3917 5.35056Z" fill="#A16929"/>
<path d="M15.462 8.58533C15.3123 9.03931 14.8266 17.9644 15.2896 22.0139L19.5696 10.7871L15.462 8.58533Z" fill="#A16929"/>
<path d="M34.4298 2.32638C33.3269 3.57481 32.2058 4.80054 30.9804 5.95817C27.5899 9.18139 23.6639 11.9779 19.0888 13.2218C16.8194 13.8301 14.1688 14.2114 11.8858 13.5622C11.8055 13.4147 11.7328 13.2632 11.668 13.1083C11.8631 13.1673 12.0583 13.2127 12.2716 13.2581C16.3565 14.0934 20.8953 12.6089 24.4128 10.5342C28.1006 8.25695 31.3667 5.35872 34.0667 1.96774C34.1893 2.06761 34.3118 2.19473 34.4298 2.32638Z" fill="#C98643"/>
<path d="M31.121 0.174529C29.0513 3.58388 26.3326 6.5892 23.1827 8.53676C20.6229 10.1166 17.7362 10.7068 14.8541 9.73979C14.1432 9.51912 13.5224 9.07492 13.084 8.47319C13.2386 8.41948 13.3901 8.35734 13.5379 8.28706C13.806 8.58309 14.1319 8.82103 14.4955 8.98619C16.0188 9.66757 17.7243 9.82715 19.3475 9.44016C22.107 8.77282 24.508 6.92514 26.4325 4.90041C27.8213 3.41945 29.0393 1.78699 30.0635 0.0337982C30.4199 0.0434446 30.7744 0.0906144 31.121 0.174529Z" fill="#C98643"/>
<path d="M36.6904 5.92639C34.6958 8.2608 32.4728 10.3899 30.0547 12.282C28.8559 13.2351 27.596 14.1086 26.283 14.8969C25.5023 15.0694 24.6945 15.2419 23.8457 15.4099C26.3543 14.2705 28.6696 12.7465 30.7083 10.8929C32.7236 9.11645 34.5864 7.1742 36.2773 5.08653C36.4226 5.368 36.5588 5.64946 36.6904 5.92639Z" fill="#C98643"/>
<path d="M20.2916 18.8601C18.9299 19.6954 18.1175 21.7428 18.9299 23.0639C18.9663 23.132 19.107 23.1048 19.0979 23.0276C19.0335 22.4164 19.1078 21.7985 19.3153 21.22C19.5227 20.6415 19.858 20.1173 20.2961 19.6864C20.8814 19.1527 21.642 18.8523 22.4339 18.842C23.3416 18.7829 23.741 19.5956 24.4536 19.8725C24.5988 19.9315 24.7849 19.8362 24.735 19.6864C24.1722 17.9885 21.685 18.0157 20.2916 18.8601Z" fill="#390A0A"/>
<path d="M25.0982 22.6735C25.0982 24.8753 23.7366 26.6639 22.0754 26.6639C20.4142 26.6639 19.0571 24.8753 19.0571 22.6735C19.0571 20.4717 20.4188 18.6831 22.0754 18.6831C23.7321 18.6831 25.0982 20.4717 25.0982 22.6735Z" fill="white"/>
<path d="M24.4583 22.7915C24.4583 24.4304 23.428 25.7605 22.1571 25.7605C20.8863 25.7605 19.856 24.4304 19.856 22.7915C19.856 21.1527 20.8863 19.818 22.1571 19.818C23.428 19.818 24.4583 21.1618 24.4583 22.7915Z" fill="#3D79CA"/>
<path d="M24.0904 22.8369C24.0904 24.1989 23.2462 25.3429 22.2068 25.3429C21.1674 25.3429 20.3232 24.2216 20.3232 22.8369C20.3232 21.4523 21.1674 20.331 22.2068 20.331C23.2462 20.331 24.0904 21.4569 24.0904 22.8369Z" fill="#390A0A"/>
<path d="M24.458 20.6806C24.458 20.9529 23.9225 21.1708 23.2643 21.1708C22.6062 21.1708 22.0752 20.9529 22.0752 20.6806C22.0752 20.4082 22.6108 20.1857 23.2643 20.1857C23.9179 20.1857 24.458 20.4036 24.458 20.6806Z" fill="white"/>
<path d="M35.6329 18.8601C36.9945 19.6954 37.8069 21.7428 36.9945 23.0639C36.9582 23.132 36.8175 23.1048 36.8266 23.0276C36.8909 22.4164 36.8166 21.7985 36.6092 21.22C36.4017 20.6415 36.0664 20.1173 35.6283 19.6864C35.0447 19.153 34.2856 18.8526 33.4951 18.842C32.5874 18.7829 32.1834 19.5956 31.4708 19.8725C31.3256 19.9315 31.1395 19.8362 31.1894 19.6864C31.7522 17.9885 34.2395 18.0157 35.6329 18.8601Z" fill="#390A0A"/>
<path d="M36.6493 22.6735C36.6493 24.8753 35.2877 26.6639 33.6311 26.6639C31.9744 26.6639 30.6128 24.8753 30.6128 22.6735C30.6128 20.4717 31.9744 18.6831 33.6311 18.6831C35.2877 18.6831 36.6493 20.4717 36.6493 22.6735Z" fill="white"/>
<path d="M36.009 22.7915C36.009 24.4304 34.9787 25.7605 33.7079 25.7605C32.437 25.7605 31.4067 24.444 31.4067 22.7915C31.4067 21.1391 32.437 19.818 33.7034 19.818C34.9697 19.818 36.009 21.1618 36.009 22.7915Z" fill="#3D79CA"/>
<path d="M35.6462 22.8369C35.6462 24.1989 34.802 25.3429 33.7581 25.3429C32.7142 25.3429 31.8745 24.2216 31.8745 22.8369C31.8745 21.4523 32.7187 20.331 33.7581 20.331C34.7975 20.331 35.6462 21.4569 35.6462 22.8369Z" fill="#390A0A"/>
<path d="M36.0096 20.6806C36.0096 20.9529 35.4786 21.1708 34.8205 21.1708C34.1624 21.1708 33.6313 20.9529 33.6313 20.6806C33.6313 20.4082 34.1624 20.1857 34.8205 20.1857C35.4786 20.1857 36.0096 20.4036 36.0096 20.6806Z" fill="white"/>
<path d="M27.8755 20.7486C27.8755 20.7486 26.9678 19.8407 26.8044 23.073C26.641 26.3053 26.8044 29.6828 26.8044 29.6828C26.8044 29.6828 24.6621 28.4299 25.3747 30.2185C25.7605 31.181 26.6682 31.6758 27.6441 31.93C27.9985 32.0325 28.3749 32.0314 28.7288 31.9268C29.0827 31.8223 29.3992 31.6186 29.6411 31.3399C29.8953 31.0902 31.2206 29.7464 30.803 29.3287C30.6033 29.1245 29.4414 29.6057 29.1464 29.6828C29.1373 29.6828 29.4822 20.0359 27.8755 20.7486Z" fill="#E1A387"/>
<path d="M33.2226 33.8367C33.2226 33.8367 29.0152 41.0503 23.2056 34.1091C23.2056 34.1091 26.5915 32.9651 27.8306 33.982L28.2844 34.495C28.2844 34.495 29.5916 32.8834 33.2226 33.8367Z" fill="#CE8D75"/>
<path d="M33.2226 33.8367C33.2226 33.8367 29.0152 41.0504 23.2056 34.1091C23.2373 34.1091 28.9153 36.7149 33.2226 33.8367Z" fill="#E1A387"/>
<path d="M25.6613 17.2149C25.6613 17.9775 23.716 17.5476 21.3384 17.5476C18.9609 17.5476 17.0156 17.9775 17.0156 17.2149C17.0156 16.4523 18.9566 14.7858 21.3384 14.7858C23.7203 14.7858 25.6613 16.4523 25.6613 17.2149Z" fill="#343434"/>
<path d="M38.149 17.2149C38.149 17.9775 36.2081 17.5476 33.8262 17.5476C31.4444 17.5476 29.5034 17.9775 29.5034 17.2149C29.5034 16.4523 31.4444 14.7858 33.8262 14.7858C36.2081 14.7858 38.149 16.4523 38.149 17.2149Z" fill="#343434"/>
</svg>
